/* XPM */
static char *f6a8043ba88842cabaca1dd3045b5a97EF0yDcw7gbGqmYik[] = {
/* columns rows colors chars-per-pixel */
"40 40 108 2 ",
"   c #EFCD70",
".  c #F0CE71",
"X  c #A28461",
"o  c #A58765",
"O  c #E1B95B",
"+  c #A38563",
"@  c #9F8260",
"#  c #A18361",
"$  c #9E815F",
"%  c #EECC6F",
"&  c #E1BA5B",
"*  c #A98B65",
"=  c #EED481",
"-  c #AE8F69",
";  c #A68866",
":  c #E2BC5E",
">  c #9F8461",
",  c #A68862",
"<  c #9E805E",
"1  c #F0D072",
"2  c #AB8D67",
"3  c #E4BD60",
"4  c #EAC66B",
"5  c #B66F25",
"6  c #AC8E68",
"7  c #E6C46C",
"8  c #A08562",
"9  c #483C30",
"0  c #695845",
"q  c #EFCF70",
"w  c #E5C064",
"e  c #6C4723",
"r  c #746049",
"t  c #DEB659",
"y  c #BD8330",
"u  c #9E6120",
"i  c #845322",
"p  c #CF9842",
"a  c #9B7E5D",
"s  c #A48660",
"d  c #B47C2D",
"f  c #5B4C3C",
"g  c #CA9540",
"h  c #A18664",
"j  c #A56620",
"k  c #E7C874",
"l  c #ECD17C",
"z  c #EACF79",
"x  c #554638",
"c  c #DDB667",
"v  c #AA8C66",
"b  c #907759",
"n  c #BC893C",
"m  c #DDB04F",
"M  c #DEB353",
"N  c #C79033",
"B  c #806B50",
"V  c #4D4231",
"C  c #B88943",
"Z  c #AC7A34",
"A  c #DDBB6E",
"S  c #D8AB52",
"D  c #705F3B",
"F  c #D09E3E",
"G  c #D2AD64",
"H  c #D5A55D",
"J  c #CC9D58",
"K  c #786747",
"L  c #DFC273",
"P  c #E8C466",
"I  c #CD9859",
"U  c #A56C28",
"Y  c #62513F",
"T  c #C89053",
"R  c #957B5C",
"E  c #665438",
"W  c #D6A748",
"Q  c #AA673D",
"!  c #7C5023",
"~  c #C2A45D",
"^  c #C48A36",
"/  c #8E5B26",
"(  c #ECD380",
")  c #574B34",
"_  c #443528",
"`  c #A48664",
"'  c #887252",
"]  c #7F562A",
"[  c #A45D36",
"{  c #6B5A39",
"}  c #97804A",
"|  c #5C3F25",
" . c #BA772B",
".. c #836A39",
"X. c #70502F",
"o. c #B48239",
"O. c #C0874D",
"+. c #593B1F",
"@. c #B9974D",
"#. c #9D5131",
"$. c #E7BD6B",
"%. c #A1884B",
"&. c #BD8E41",
"*. c #E2BB69",
"=. c #E9CC7A",
"-. c #977B43",
";. c #903F27",
":. c #A79054",
/* pixels */
"$ > h @ > > $ $ $ @ 8 8 8 > # # # @ < a < < @ X X # X @ a < $ X # X # < < @ @ > ",
"@ 8 h 8 > > 8 8 > @ > @ > > # @ # @ $ $ $ < $ # + # # $ a < @ X @ < < < $ X 8 $ ",
"@ 8 8 h @ h o h X # @ < $ < $ $ < $ < $ < a a a a a < a < $ @ + X # $ < a $ @ < ",
"@ @ @ @ > h h > X + X # R x 9 9 9 9 9 9 9 9 9 9 9 9 9 f $ @ $ @ X # $ $ $ < $ < ",
"> $ $ @ 8 > > h + + ` b Y ] i i i i i i i i i i i i i ] f x x x x x x Y a @ @ $ ",
"8 @ > 8 > # X + # + b E ] g p p p p p p p p p p p p p n ! e e e e e e X.0 R X @ ",
"8 8 > > > @ # X # b { ] g w 7 7 7 7 7 7 7 7 7 7 7 7 P M g N N p y j j u e r R X ",
"8 > $ $ 8 @ # X X Y e g w l ( = = = = = = = = = = ( z 3 O O w c &.j j j u e r R ",
"X # @ $ + + ` + X Y D w l ( ( L A A A A A A A A A L ( z w 3 *.C d F F g j j | 0 ",
"X X # # + ` + ` ` Y D w k k L Z u u u u u u u u u C k k l =.Z d F F W m p j _ 0 ",
"` @ X + + X X ` ; Y K G U U U y N N N N N N N N N y U Z k =.Z d W M M O M g e 0 ",
"` X # # + + X o ; 0 _ D y y ^ W m m m m M m m M M F y y Z Z y F t O : 4 : M E 0 ",
"` ` + X o ; * * ; b r r ..W m 3 4 4 4 P 4 4 P 4 4 : m W y d F t & 3 4   4 & { 0 ",
"+ ; ; ` + + ; * * ` ; B V c P % . . . .           % P 3 m M w 3 : P %     P { 0 ",
"X + o o X X o o ; o ; ' V L .   . .     . . . . q c H % P % H S 4   %     % D 0 ",
"+ ` o o + X o o o o @ B D L .     .         . q 1 I Q G 4 G Q I q %   . .   D 0 ",
"X ` ; o + X # + ; ; K E L     . . . . . .   $.c 7 % J [ H [ J % .   .     A r r ",
"` + ` + ` + # + , * r E k . . . . .   % 4 $.[ ;.T 1 4 I #.I 4 .       . k { B X ",
"X X + X ; ` ` , s * r E k .   .   % q G #.#.T H *.1 H [ I [ H q     .   7 ) B , ",
"# # # X + ` o o s B K ~ % . .   O.T q w T T 7 1 1 J Q I 7 I Q J 1   .   7 ) B , ",
"X @ # X $ # o ` , Y K 1 . 4 O.c I J . . 1 1 . . q G T       T H q   . . 7 ) B * ",
"X + + + ; + ` + ' K :.1 7 O.Q c 1 .     .     . . q 1     . 1 . .     . k ) B * ",
"+ + o $ ' b X ; x } 1 q c Q c q                 . .     . . .   .   . k ~ D b , ",
"# ` > B V f b a Y %.q 4 c 4   . . . . . . . . . .       . . . .     q c V b 2 * ",
"X ` r r L G ) _ %.t P H [ $.  % % % % % % % % %     %       % % % % % G 9 b v * ",
"X ` 0 D ( z G / @.O O M H O : 3 : 3 : : 3 : : 3 4 % % % % % w : 3 : : ~ V b * * ",
"+ r K ~ ( = ( c o.U &.& & O O & & & O O O O O O 3 w w w w w : & O & ~ D b , * , ",
"+ f ..w 7 4 ( = G J &.Z n t : & : F Z d Z Z Z d Z g & O O O O & & & @.9 > v * * ",
"X f ..& t & 7 4 l = c C C n n n n C C C C C C C C C g t O O O O O : @._ $ - - v ",
"X f D S O & O O 7 k z = L o.Z Z Z ~ = = = = = = = J U t & O & O & S } 0 h - - 2 ",
"+ r X.Z S O & & O O w z ( l l l l z z z z z z z l J U W S t & & : %.V ; 2 - - 2 ",
"+ + 0 | y m M t & O O w z z l l z 7 & & : : & : t n u 5 d S & O t } f * 6 - - * ",
"o ; r | 5  .y S t t t t : 3 : : : & O O O O O & n j 5 5  .S O : -.E ` v 2 6 - - ",
"X ` a r e U 5 d y y y g t O t O O O O O O & & O o.u 5 5 5 y S : ' f - 2 2 6 6 - ",
"# X + a r | +.+.+./ 5  .^ ^ ^ ^ ^ F O O O & & & o.u 5 5 5 5 W } K R 6 6 2 2 * * ",
"+ # # o a 0 0 0 0 X.e e e e e j 5 y p g g g g g  .u j 5 5 5 ..K b - 6 2 2 2 v - ",
"o X X + X s s s s B f f f f Y X.! ! ! ! i 5 5 5 5 j u u i ! E R - - v * 6 - 6 6 ",
"+ o + X X s s s X # s s s , , 0 V V V V x ] / / / / i e x x R 2 - - 6 2 6 - 6 v ",
"X ` ; ; o o ; X # s s s X s s s s , s s @ x _ 9 9 9 9 f ; 2 v 2 v 6 2 2 6 - 6 6 ",
"X o ` + ; + # @ X s , , X s * , , * v , * 8 @ h h o h o 2 6 6 - * * * 2 6 - * 2 "
};
