/* XPM */
static char *_fbce7e94d524d0bade39610ba63fcb3wKUhYDwVxTX25gYl[] = {
/* columns rows colors chars-per-pixel */
"40 40 61 1 ",
"  c #A08360",
". c #A58764",
"X c #A28563",
"o c #A28462",
"O c #9E815F",
"+ c #A88A66",
"@ c #AC8D68",
"# c white",
"$ c #ECCAAF",
"% c #62372D",
"& c #9D7E5C",
"* c #100605",
"= c #573029",
"- c #E7C5A9",
"; c #2D1C19",
": c #9B6E53",
"> c #F2D1B6",
", c #4C2923",
"< c #B3946E",
"1 c #6E6A68",
"2 c #381D18",
"3 c #5F5956",
"4 c #261410",
"5 c #F1EEEB",
"6 c #41241F",
"7 c #866B4C",
"8 c #A03D32",
"9 c #E1BFA5",
"0 c #504C4B",
"q c #5E4E3D",
"w c #F9F6F4",
"e c gray90",
"r c #4A3E33",
"t c #F6DBC6",
"y c #A5A1A0",
"u c #794B35",
"i c #A36149",
"p c #947759",
"a c #7D7B7B",
"s c #D4D2D2",
"d c #EBC86A",
"f c #6E5E48",
"g c #CAAA8C",
"h c #B89E76",
"j c #D69C56",
"k c #564639",
"l c #3E332B",
"z c #908E8E",
"x c #C6C5C4",
"c c #747374",
"v c #91543C",
"b c #A87D5A",
"n c #F5DF75",
"m c #B8B9B8",
"M c #838485",
"N c #DAB89D",
"B c #FCF3B5",
"V c #FAF232",
"C c #C8802A",
"Z c #877368",
"A c #FAEA87",
/* pixels */
"O .   OOO XXX   o O&&O oo o &OOX o O&  X",
"OX.   XX OXO   OOOOOO&O X  O&O oO&O&OXXO",
" XX. X.XooO&OOOo+@  oO&  O OOO XX O&&O O",
"O O  X. XXo  .< ffo+O& oOOo XOOOX OOOOOO",
" OO XX ..oX .7l;*7q7. ooOO o.oOO&O&O O O",
"X  X  o.  X op**:-7q@ oooOo.o   &O O& o ",
"XX   O o .XoO<l*1eaq+o X.X oX   & .  O  ",
"X OOXO o oo.o+ff7**f+oX... OXXo. o o OO ",
"o  O...X Xo .X++opuv...+X &&X.X++   +Xo ",
"oX  X.X.oo oo.XXX+ivO. X oo  oX..XXX  ..",
".OoXXo X.  .o+@puuuuuu7++...XX .X&X. X.X",
".o  XX ...&&&p&pu%u%uup&&&&OO+.o :.ooX..",
"..Xo.+++..7::::7:::::::::::vp+..o:XXoX..",
"o.+.Xo.@+ .9>5-N9>$>---59->h&+...:...+..",
"oX.. o....-tw#t9nnnAn>5#w-$$+.oo.:+.+.&:",
"X...oo...+>>tw#nVVVVVA#wt--t<X+.+:+.&bvi",
"o...Xo X.@->$-BjCCCCCjB>9>$$<X...:.:vd8i",
".oXo.X .og$$$ndhBBABBhdn9$$$<+@+:8bC8d8i",
"ooX ...+Og>99>ga1M#1ccg>$99$hO:id8jj8d8i",
"  oooX..Og--$$gamxxmmcN$>9$>b<:8d8jj8d8i",
"o O....+.g-$>Ntxm#5#ysw$$9>>8jjin8jj8d8i",
"oo+p7p@O7<$->5#wz111ht#wt$>Nid8dj8jj8d8:",
" +7,6r7k66X$t##-3000f$5#5$-9@gih:8di8diX",
"Xoqswea%=%kt$tt9Z0r0Z$>5$99-h@<<bvbbobb@",
"ofs####h2;ht>99$NOO<t>$->9-9qrrrlub@+.++",
"qy#w#c;s3gt$$-Nghpkqh9>$-$>Z*****%b++.@+",
"ky###;*z1<--9N+. ;**47kg>$t7*;60lk3333q+",
"qay#xxywqo$-$@o@ vvvv7*61>tZ;41x5sxe5mf@",
"&1zcm##yl<h$g++@ %%%%74**f9;4r13ac1M1q<+",
".&1ewe5#zrqqkkqqk42==r;4*;r;43Maaaa11p<@",
" @pr0xe#eM5555e5eszuis#yms5ww5eee5sl&<@@",
"Xo.7lm55#s0330a10xm**ys3ey331333333 <@<+",
"...fszc5##3**M#z*0;zaMM;*a3*z4,6,;7<+@@<",
" @qxef*35##e5#el0z;3000%2c1;y6%%,qh+@@@@",
"O.7crVf*011cc1r20M4,6,6=2a1;y2%%2fk.@@++",
"X  ls#ey6*****240z*6222240k*1422*26k<+@@",
".oX4qw#1422222;4;l4;222224;4*;;;4=,r<@@@",
"X.+r6w#y2=,,,,,,62,6,,,,,,,,,6,2;%6r<@@@",
"oX@pls#wu=%%%%%%%%%%%%%%%%====%,6%,r<@@@",
"o. <lZ##y,======%==============4=%,r<@+@"
};
