/* XPM */
static char *efdb6619cc7a4367f0bbdd5b68827d5fxtnlBNe6NaVeEdZx[] = {
/* columns rows colors chars-per-pixel */
"40 40 87 1 ",
"  c #987B59",
". c #9C7E5A",
"X c #9D7F5B",
"o c #9B7E5C",
"O c #9C7E5C",
"+ c #9C7F5D",
"@ c #9D7F5D",
"# c #9A805D",
"$ c #9B815E",
"% c #9A825E",
"& c #9B835F",
"* c #9E805C",
"= c #9F815D",
"- c #9D805E",
"; c #9E805E",
": c #9E815F",
"> c #9F815F",
", c #9C825F",
"< c #A1835D",
"1 c #A0825E",
"2 c #A1835F",
"3 c #A1845C",
"4 c #A2855D",
"5 c #A0845F",
"6 c #A2845E",
"7 c #A3855F",
"8 c #A3865E",
"9 c #A4875F",
"0 c #9D8360",
"q c #9F8260",
"w c #9C8460",
"e c #9D8561",
"r c #9E8461",
"t c #9F8562",
"y c #9E8662",
"u c #9F8763",
"i c #A08260",
"p c #A08361",
"a c #A18361",
"s c #A08363",
"d c #A28460",
"f c #A38561",
"g c #A28661",
"h c #A18462",
"j c #A28462",
"k c #A28563",
"l c #A38563",
"z c #A08663",
"x c #A38762",
"c c #A48660",
"v c #A58761",
"b c #A48662",
"n c #A58763",
"m c #A18464",
"M c #A28565",
"N c #A38664",
"B c #A48664",
"V c #A48765",
"C c #A58765",
"Z c #A58860",
"A c #A68961",
"S c #A48863",
"D c #A68862",
"F c #A78963",
"G c #A78A62",
"H c #A58964",
"J c #A68864",
"K c #A78965",
"L c #A68A65",
"P c #A68866",
"I c #A78967",
"U c #A78B66",
"Y c #A88B63",
"T c #A88A64",
"R c #A98B65",
"E c #A88A66",
"W c #A98B67",
"Q c #AA8C66",
"! c #AB8D67",
"~ c #A88A68",
"^ c #AA8C68",
"/ c #AA8C6A",
"( c #AC8E68",
") c #AD8F69",
"_ c #AE906A",
"` c #AF916B",
"' c #B0926C",
/* pixels */
"w&&&,0,&,0aa0,,,X11,,1z1111,111,Nm,oXa, ",
"&wwww000&,0azzzz11,XX,1zzz1,X11aza,X0zz,",
"&wwwwwwwaaa000azaa,,XX,azz1XX,zza,X,0za,",
"&&wwwwzzzzaa,,aaaaaza,,1aaa1,,aza,X,,,,X",
"0,,0wzzzzzzaaazBzazzz,1a,1azaaaaa,,aa,,,",
"w,&,0wzwzzzaaaazBzzaaaaB,,azza11,,,,1a,,",
"w000aaaazzzzaaaaBBaa,azBzaazBz1,Xaa1,aa,",
"0wwwaaaaazzzzzBBalaa,zzaPlazza,11llaaaz1",
"aza,,aaaazzzBBzzaBBzzazPBz,azBBzzaazz1X,",
"azzazBBNzzaazBBBza,,zBBBaa,,zBEEzzzzlzaa",
"azzaazlzBzaazBPPEl11lllllz111zllzlzzlBBz",
"zzzaaazzBBzzBBBBEEPllz7lEPllzlllzlzazBPB",
"azlBBBPPEPBBBBBzzPllDl7llllDEPPlzzz7zBPl",
"zzBBBBBP/~BzzBBPPEllEEl7zzzlPPlzDDzzNBBl",
"BBBBzazB~PBzBBPE/EDDETll7777ll77PPDPPDzB",
"zzBBBzzPBBBBPE~ElDDDllDQllDDllTEPPDPPzzz",
"azBPBBz1Pllz1lEEllDTDDDllDDEDDDDEEEDlDD7",
",alBBzz1zlEEDDDlllDDDDDDlDDEEDDEEEDl77l7",
"aallllllllEElDDlllllDDDTDEEEEEEEEEDDl7lD",
"zzzaazlPPlPPDDEDlllllDEEEEEEEDEEDDDDDllE",
"aaaa1azlllTEEEElDDl77lTEEEEEEEEEDlDEDllD",
",azBllz1lzlTDEEElDDDllDEDDEEEEQQEEEQQTDD",
"azBPDDllEllllDEElTTTDDDDDDEQQEEEQQQQQQED",
"azlzlllElllEEDDllTQQTDDDEEQQQETDEEDlDQEl",
"BzzBEEPlDEDDllDE7DEQQEDQEQ)QEDDlQQDlEEDE",
"zaaBllll7lDTDDDDDEEEEDlEQQQQEEDDEQQQQEll",
"Bzzllllz7lll77DTEQEEEDlDEEEQQQEDE))))Ell",
"zzzlllzzll7777DTDEEQ)QDlDEQ))QEDEQQQQQEQ",
"1111zzl777DDD777lDDE_)EDEQ)))QEEQQEE))Q)",
"1zzzzlll77ll77DDDDlDQQEE)_))QQ)_QQEQ))QQ",
"7llzll77l77737DTDEDlEQEE_)QQQ)))Q)QQ_)Q)",
"zll77l777lDl7777lEDDQ)ED)QEQ__QEQ))Q)))'",
"alBBlzzl1zDl1777lDlDQEDDEEQ______)EE))Q)",
"1azBlDPPlPTD77DlDEEQ)QDEQ))))))QQ))Q)QQ'",
"zzazlllzzll77lEEEQEQ)QEEQ__))_)EQ))QQEE_",
"Bzzz7711z1177lEEEQETQEEEE))))_)Q)QEE))QQ",
"azlzzllllz7l7lDlEEDDTTEQEDEQ)QQ)_)EQ__QQ",
"azBBllPEz17l77llDEDlTEE!QEE))EE)Q)QQ)QQ_",
"zlBBlzzz1,7l77DTlEEDEQQ!_))__QQQEQ)QQEQ_",
"a11az1,XllDEl7TQ7EEEQQQQ)__)))QQEQQQ)QQ_"
};
