/* XPM */
static char *_0aaaabb3b024c53ad865da95141ac9837Rpyaqzbqs95Nl6[] = {
/* columns rows colors chars-per-pixel */
"40 40 155 2 ",
"   c #A28462",
".  c #A38563",
"X  c #A18360",
"o  c #A48664",
"O  c #AC8E68",
"+  c #A48660",
"@  c #A98B65",
"#  c #AB8D67",
"$  c #AD8F69",
"%  c #A58761",
"&  c #9F8461",
"*  c #A3855F",
"=  c #A88A64",
"-  c #AA8C66",
";  c #A08260",
":  c #A58765",
">  c gray5",
",  c #A68862",
"<  c #A78963",
"1  c #9D805E",
"2  c #9D8360",
"3  c #121010",
"4  c #A68866",
"5  c #9F815E",
"6  c #E7C540",
"7  c #EFDBC3",
"8  c #E7C33C",
"9  c #836B4F",
"0  c #2E261C",
"q  c #9C7F5D",
"w  c #E9C538",
"e  c #1B1816",
"r  c #705C44",
"t  c #7C664B",
"y  c #3C3633",
"u  c #F2DEC5",
"i  c #1C1A18",
"p  c #171415",
"a  c #25211B",
"s  c #DECCB7",
"d  c #886F52",
"f  c #060607",
"g  c #937858",
"h  c #EBD9C2",
"j  c #A18663",
"k  c #8E7454",
"l  c #EE3E3C",
"z  c #766F68",
"x  c #5F532B",
"c  c #2B2928",
"v  c #322F2C",
"b  c #ED433D",
"n  c #756048",
"m  c #342D1E",
"M  c #D8C7B2",
"N  c #221D18",
"B  c #3166DD",
"V  c #1D1C1E",
"C  c #EBAF40",
"Z  c #977C5B",
"A  c #E6D3BD",
"S  c #71675D",
"D  c #564B26",
"F  c #B3A595",
"G  c #433924",
"H  c #B0926B",
"J  c #CDB03C",
"K  c #685741",
"L  c #F13736",
"P  c #90867A",
"I  c #483C2E",
"U  c #EDC93D",
"Y  c #B89F3C",
"T  c #F5E2C9",
"R  c #968238",
"E  c #EEC23B",
"W  c #594C3A",
"Q  c #584835",
"!  c #61503C",
"~  c #5A524A",
"^  c #4A443E",
"/  c #DDBD3F",
"(  c #3D3126",
")  c #413F3F",
"_  c #ED6641",
"`  c #6E5D32",
"'  c #EB7069",
"]  c #EB968A",
"[  c #473E1F",
"{  c #C2B5A6",
"}  c #4D432B",
"|  c #655E57",
" . c #9D9285",
".. c #EAA544",
"X. c #CFC0AC",
"o. c #EBB941",
"O. c #7F6E2F",
"+. c #DBB83C",
"@. c #E97B43",
"#. c #CFB13C",
"$. c #EC573B",
"%. c #7A6A34",
"&. c #E24341",
"*. c #817231",
"=. c #877435",
"-. c #8C4243",
";. c #273C70",
":. c #EE9F3F",
">. c #A79C8C",
",. c #E58F41",
"<. c #7B7874",
"1. c #235DDE",
"2. c #B6983C",
"3. c #2D61D3",
"4. c #E97040",
"5. c #EE623C",
"6. c #ED763E",
"7. c #D43939",
"8. c #8C635D",
"9. c #8675B3",
"0. c #A48B35",
"q. c #E53939",
"w. c #783031",
"e. c #3B1A1C",
"r. c #542021",
"t. c #72292A",
"y. c #8A7F72",
"u. c #EE4E41",
"i. c #C1B2A1",
"p. c #845097",
"a. c #C9A73F",
"s. c #BDAD9C",
"d. c #17213D",
"f. c #1F2942",
"g. c #CB9A3E",
"h. c #AB943C",
"j. c #BE4B38",
"k. c #F9D1BD",
"l. c #8B7937",
"z. c #5A2C29",
"x. c #3F1F21",
"c. c #EC8143",
"v. c #A58F3D",
"b. c #8298D5",
"n. c #9C3739",
"m. c #A37E39",
"M. c #F1B19F",
"N. c #D77A43",
"B. c #D5E1F6",
"V. c #7C3445",
"C. c #9DA7BE",
"Z. c #FEFCF7",
"A. c #6F7890",
"S. c #CBD7EA",
"D. c #F3F0EA",
/* pixels */
"2 & j 2 & & 1 1 1 2 & & & 2 d 9 9 9 t t t 9 9 d 9 9 9 q q 1 5   X   X 1 q ; 2 & ",
"2 & j & & & & & & 2 & 2 j 1 m 3 3 p 3 i 3 V > i 3 e e d 5 1 ;   ; 1 1 q 5   j 2 ",
"2 & & j 2 j : j   X ; 1 9 r x D D x D x D x D x D x D r n q ; .   X 5 q q 5 ; 1 ",
"2 2 2 2 & j j &   . .   y 3 Y w 8 8 8 8 8 8 8 8 8 8 +.m e g X ;   ; 5 1 5 1 5 1 ",
"& 2 2 2 & & & j . . 9 ! ` %.#.6 6 6 6 6 8 6 8 6 w 6 / l.` ! r q 1 1 q 1 ; 5 ; 5 ",
"& 2 & & & X   . X o Q f 0.U w w w w w 6 w 8 w w w w w U #.N 0 q 1 5 ; 5 1 ; X ; ",
"& & & & & ; X   X : ! p v.U 6 6 6 o.@.@.6.@.6...6 6 6 6 J 0 ( q 5 X o X ; ; X X ",
"j & 2 2 j ; X   ; . Q > 0.E E E w ..b b L b L ,.E 8 E E J a m 1 ;   X   X ; 5 ; ",
"  X ; 5 . . o o t m %.2.N.5._ _ _ 4.:...:...:.c.5._ _ _ 4.2.R ( !   X X 4 .   ; ",
"    X X . o . 4 K f =.E 4.l b b b $.+./ / / / @.l b b b $.o.2.3 G . . .   X . : ",
"o ;   . . . . 4 r 3 -.$.,.C C C C g.G G m G m m.C C C C ..5.j.p I % o :   . 4 o ",
"o   X   X g k g r 0 -.u.,.J J J #.h.e V 3 V > *.#.J J J a.$.j.0 } k g k q o 4 : ",
"o o . : g N e 3 ` +.o.o.` N 0 a N a 3 i > i 3 a N 0 a 0 G C o./ R 3 N 3 n = : 4 ",
". 4 : d t [ } G %.Y Y Y D p V V ) ) i v ^ y p y ^ c e V m h.Y Y R [ } [ r d 1 . ",
"  o q N m +.8 8 R 3 a 3 V 3 3 a M { 3 ~ h P f P 7 W > p p e i > x 8 8 6 x > 9 : ",
". o ; Q Q R 2.6 Y x } i c V ~ S  . .| P 7 F | P  .z | v V V v x R 6 a.R ` I g : ",
"  o 4 4 k 3 [ 6 U U O.> e 3 i.s a y A 7 7 h u S > F A y 3 3 [ 8 U U O.f r = + . ",
"o . o . q ! K O.=.*.W i | y.M M v ^ A h h h 7 z i F h  .z c ( O.=.O.n W k + * % ",
"    .   4 = t f p f i > >.T u M a y A 7 7 h u S > F u u M a 3 f 3 f W # , % % % ",
"X X X   . o Z r n n I p >.u 7 M c ) A h 7 h 7 z p F u 7 X.c 0 r n r k % % < + % ",
"  ; X   5 X 4 , % @ W >  .h 7 M c y A 7 7 h u z 3 F u h X.a m = - = = , < = , < ",
"  . .   o   o . * % g 9 ~ ^ X.h i.{ h h 7 7 7 X.s.s A | ^ 9 k - @ = @ - # @ = , ",
". . : : 4 o . < % + = = I e F s s s s s s s s s s s X.y 0 5 # - @ - - # # @ @ , ",
"X o : : + % % , % * = = q g I c v v v y c y c y c v v d q < , < < = = , , = - @ ",
"  . : 4 % + < < , + % , < + I a e N e.( y y e.0 p 0 0 Z O @ % , = - @ < = < @ @ ",
"    o 4 % * + , % , = @ = + + g N x.7.' A ] q.t.> t < - @ = = = @ # @ @ # = < = ",
".   . o o o . * * % + + % , d t z.w.&.' 7 ] l n.r.r 9 , O = @ = @ # # # $ - @ < ",
"  . o o o o .   + + % * + * 0 p 7.l L ' 7 ] L l q.r.3 g H - = , < - # # # @ @ @ ",
"X   : : o . . % + % < + t K S 8.&.b l ' 7 ] l b l 8.S n n , O = @ - - = @ $ $ - ",
"X   X   + * * * * + , % ( > { k.u.l L ' u ] L l L M.h v e 2 $ $ - # @ - @ $ $ # ",
". 4 o . . + % + * + t } z P <.S w.V.p.9.b.9.p.-.t.n z P y.W K O - O O # - $ $ # ",
". . X   * + + * + % Q f >.7 y f > d.1.B 1.B 1.;.> p e X.M V 0 < @ O $ # O $ H @ ",
": o o : o o . * * + k n K ~ r r N f.3.B B B B ;.p ! t ~ ~ t d # O $ O - # O $ $ ",
"  o o : : o o   5 % < % I 3 d Z N f.3.B 3.B B ;.> 9 , 0 a + H $ $ $ O - # O O $ ",
"X     o : o : + * < , * g k X Z N ) S.C.d.A.B.z 3 9 $ Z Z # O @ - O O O # # @ @ ",
". X X o + X * * + * X * % O O Z N ) D.{ 3 <.Z.<.3 d H H $ $ H O - # O # # # - $ ",
":     .   X * * X 5 * * * , < Z N ) h F 3 z T z > 9 O O # O $ O $ $ - @ O $ O O ",
". : .     * % + * X + + + % < 1 ( ^ s.P 0 S { S 0 d @ # $ O @ @ $ H O # O $ O - ",
"  o 4 4 : : 4   X + + * * + % % + d p G % K 3 r < < - $ $ O - # - O # # O $ O O ",
"  : o . 4 . X ; * + , , * + = , < g ( Q @ t 0 t $ $ O # O O O $ = @ @ # O $ @ # "
};
