/* XPM */
static char *_86a9a65b4574e3d896f65bab9879bb9CUOBTpbiynJI9hnO[] = {
/* columns rows colors chars-per-pixel */
"40 40 185 2 ",
"   c #323C3D",
".  c #303E41",
"X  c #2C494F",
"o  c #334244",
"O  c #34464B",
"+  c #39474A",
"@  c #35494C",
"#  c #3B4B4D",
"$  c #304651",
"%  c #354C53",
"&  c #3B4D53",
"*  c #365055",
"=  c #3D5155",
"-  c #36515A",
";  c #3C545B",
":  c #3F5761",
">  c #3E5960",
",  c #404B4D",
"<  c #414F52",
"1  c #435256",
"2  c #495356",
"3  c #42555A",
"4  c #4B575B",
"5  c #46595D",
"6  c #4B5A5D",
"7  c #51565A",
"8  c #525C5E",
"9  c #455D62",
"0  c #4B5D63",
"q  c #475F69",
"w  c #545E61",
"e  c #466166",
"r  c #4B6164",
"t  c #476269",
"y  c #4C646A",
"u  c #4F6A6D",
"i  c #526366",
"p  c #53656A",
"a  c #59666A",
"s  c #546A6D",
"d  c #5C6A6D",
"f  c #4F6C74",
"g  c #536772",
"h  c #536C73",
"j  c #5B6D72",
"k  c #556F78",
"l  c #586E79",
"z  c #557076",
"x  c #5C7176",
"c  c #557279",
"v  c #5B737B",
"b  c #5D787D",
"n  c #616666",
"m  c #626C6E",
"M  c #636E71",
"N  c #657273",
"B  c #6A7375",
"V  c #62757B",
"C  c #6D7578",
"Z  c #62787C",
"A  c #6B7C7E",
"S  c #767877",
"D  c #727679",
"F  c #5C7780",
"G  c #5D7C84",
"H  c #5C7E88",
"J  c #637D83",
"K  c #6C7C84",
"L  c #637F8A",
"P  c #668287",
"I  c #6C8186",
"U  c #64838B",
"Y  c #6B858C",
"T  c #67888D",
"R  c #6D898E",
"E  c #72858B",
"W  c #7B868A",
"Q  c #748A8E",
"!  c #798C8F",
"~  c #668790",
"^  c #6B8691",
"/  c #678A92",
"(  c #6C8C94",
")  c #6E8E98",
"_  c #798790",
"`  c #728D94",
"'  c #7A8D93",
"]  c #728E99",
"[  c #6E9095",
"{  c #6F9299",
"}  c #749195",
"|  c #7B9196",
" . c #74929B",
".. c #7B949B",
"X. c #7C999E",
"o. c #7395A1",
"O. c #7A96A0",
"+. c #7799A2",
"@. c #7D9AA2",
"#. c #7C9EA8",
"$. c #7DA3AE",
"%. c #838D8F",
"&. c #8A8B8C",
"*. c #828E94",
"=. c #888F95",
"-. c #859295",
";. c #8C9394",
":. c #8E9897",
">. c #83959C",
",. c #8A959A",
"<. c #839A9E",
"1. c #8D999C",
"2. c #919696",
"3. c #92969B",
"4. c #929B9C",
"5. c #9B9D9C",
"6. c #8297A1",
"7. c #839CA3",
"8. c #8C9DA4",
"9. c #8B9DA3",
"0. c #839FAA",
"q. c #849FA8",
"w. c #859FAB",
"e. c #929BA2",
"r. c #909FA2",
"t. c #929FA5",
"y. c #939CA1",
"u. c #999EA1",
"i. c #87A0A7",
"p. c #87A3A7",
"a. c #85A2A6",
"s. c #85A0A6",
"d. c #8CA0A1",
"f. c #8EA2A3",
"g. c #8AA2A6",
"h. c #8BA2A6",
"j. c #86A1A8",
"k. c #86A1AA",
"l. c #85A2A8",
"z. c #86A1AC",
"x. c #85A3AB",
"c. c #8DA1A8",
"v. c #8EA1A8",
"b. c #8DA6AD",
"n. c #8CA7AE",
"m. c #8AA4AC",
"M. c #96A1A3",
"N. c #91A2A6",
"B. c #97A1A2",
"V. c #93A1A8",
"C. c #94A6AA",
"Z. c #93A7AE",
"A. c #93A4AB",
"S. c #98A7AC",
"D. c #92AAAE",
"F. c #97A9AD",
"G. c #97ABAC",
"H. c #97AAAE",
"J. c #91A9AD",
"K. c #99ABAD",
"L. c #98AAAE",
"P. c #98ACAD",
"I. c #8AA6B1",
"U. c #8CA9B2",
"Y. c #95A9B0",
"T. c #91ABB3",
"R. c #99AAB1",
"E. c #9CABB0",
"W. c #9BADB1",
"Q. c #99ACB5",
"!. c #92AFB9",
"~. c #98AEB9",
"^. c #8FB0B7",
"/. c #97B0B7",
"(. c #9FB2B6",
"). c #93B1B9",
"_. c #9BB4BB",
"`. c #9CB5BC",
"'. c #9AB4BD",
"]. c #9CB9BF",
"[. c #A3A7AA",
"{. c #A2A6A9",
"}. c #A4B3BA",
"|. c #9BB6C1",
" X c #A1BCC3",
/* pixels */
"5.&.;.%.! -.*.*.-.-.-.-.-.-.=.,.1.-.4.;.-.,.-.-.-.-.-.-.-.-.-.-.<.<.>.,.e.4.{.&.",
"&.n W r.9.9.>.V.V.9.9.f.f.9.t.t.t.-.B a E N.F.W.R.F.L.F.L.P.L.L.Z.Y.R.E.-.w D ;.",
"=.W C.D.i.@.6...6.....X...X.6.| v.9.Z 9 7._.`.n.k.k.k.i.k.i.i.i.n.9.9.(.N.w N 4.",
"*.8.9.} ) G U L U U U U U U U J ` Y g % q.q.0. .) ) ( ( ( / / T ( R Q <.' 4 N :.",
">.v...J T H ( U U ( T U ~ ~ U ^ ^ v ; ; z.] ] ] ]  .] ) ) ) ( (  .} ` ` V # N :.",
">.>.7.U T / ~ G U / U G U T U Y ` J * ; q...] ]  . . . . . . . . .[ } } Z + N :.",
",.-.| P U Y J Y Y Y Y P Y R Y J J Z ; = 7.} R  .( ( ( ( ( ( [ ( ) [ ( ` Z + M 4.",
"%.M.A ; s Y Y I E I Y Y P Y I j r r 3 = g.x y J } } } } } } } }  .] k y p # N :.",
";.W N 5 r h s s s d s s u s s r 6 6 4 1 j a p p V V x V j j V x v v p y j & B ,.",
"4.8 < & % % @ @ @ # % * % @ & % & # + o 1 & & = O & % % 5 3 & % % % & & 1 o B 3.",
"e.i j x k c k V j = * e c h k k h x j h v h h h z v h * % * y v l v v j V 2 m 4.",
">.>.~.T.).).T.`.7.t t @.!.!.U.U.m.I.I.U.m.I.I.m.I.m.U.J - c !. X/.~.~.W.}.B m ,.",
">.Z.g.] O. .@.T.g.q f ).x.#. .] ] ) ( ) T ) ] ] (  .m.( * ^ _.p.I. .] | >.p M 4.",
">.~.T... . .O...] > h ^.)  .] ]  . .) { ( ] ) ( ]  .] h $ ] T...#.O.....<.p m 1.",
"-.Z.D.} } X.7...] 9 h p.T  .] ( ) [ [ { ) [ ( Y Y } ` y % ` c.`  .+.[ ] 7.p N 4.",
",.C.D.`  .X. .<.` 9 z p.}  .( ` )  .[ ) ) [ ) ( `  ...u % Q A...#. .[ @.<.i N ;.",
",.L.D.} X. .] ( ` 3 h p.z v ' ]  . . . . . .)  .( v v g & ` 7.J Y O.X.X.9.d d 4.",
",.1.c.}  .[ T P Q r s Y r y J E Y J I J Y P Y I V t 0 0 & K Q j J R ` Q Q i N 4.",
"4.C N s v b v v Z 5 # 6 6 0 0 5 5 1 6 5 3 = 5 5 5 3 i w + 4 a p t y u y i 1 B ,.",
"3.4 1 = ; - * = = 1 3 3 ; & & 3 1 1 # & & 1 = & 3 & & = & 1 1 % * * * ; 1 o N 4.",
"e.K 6.z.x.#.l.I.q.q.k.l.m.m.m.q.i.X.u % v ] X.X...X.7.7.X...X.7.@.X.X...E 1 m 4.",
"8.9.|.U.$.o.o. . . . . . . .o. .z.m.F -  .z.m. ./ ( ~ ~ ( ~ ( ^ Y T ` <.| 6 B u.",
"1.c.U. .{ [ ) ) ] ] [ [ ( ( ( /  .] h - @. .] T T ~ U T U U ~ U Y U J Q K < M -.",
"1.A.g.T { / ( [ ] } [ } ( ( / ]  .J ; ; @.Y U T U ~ T ( U U ( ~ U U I Y j O B 4.",
"1.9.J.` (  .(  .` ` } } [ [ } } ..I ; ; ..] Y U U Y U T Y Y L Y U P Y Q j + B 4.",
"1.C.<.J (  .( ( R ` } } [ [ } U I J 9 & 7.J b ( Y U J P Y T U U ( R J Z j # M :.",
",.V.E 9 c T  .] ` ` ` ] ] Y ( v q p 9 * | u 9 u P P Y Y U P P J U G y 5 0 # B 4.",
",.W V q y h g y p g g s h y k t p p 9 = y 5 9 y y e 9 9 9 9 r y t e e r 0 # B -.",
";.7 < & % @ O % & < & O % O % @ O # O O o @ @ o @ @ + # = # + O $ X $ @ & . B 4.",
";.m A E Y Y E Q M 1 3 V Q ` Q ' ' ! Q Q ' ! ! ! E Q I d # 6 B E Y ( R P ' 6 M 4.",
"*.>.D.7.s.k.m.T.7.q g U.]._.m.U.I.I.I.m.!.m.k.I.I.).].@.; v n./.m.k.i.7.Z.d M 4.",
"' Z.k./ ) ~ / l...: v ).m.m. .(  . .o. . . . . . . .z. .- T !.@.0.) ( Q | 6 N 4.",
"' A.g.( / / )  .v % v T.]  . .)  .O.@. . .O.O. . ...O.k % Y 9.( { (  .( | 0 M 4.",
"! v.b.( Y )  .] v % x W.X.X... . ...O. . .........@.O.z % Y 9.] ) ~ ) ] <.i d 4.",
"*.V.v.Y ]  .( ] v % x R.' ..X... . ... . ...........| V % Y 9.R ( ) ] R ..r m M.",
"*.V.V.Q | R g j s @ B V.V V ........X.<.<.X.<.<.' Z V x & I ' y J ] ..` -.p N 4.",
"-.-.' V Z v y r p 1 d W d V E Y I I I I I I I I K x x x = j B 0 s v Z V A 4 M 4.",
";.w < + # & 1 & < + o 1 2 6 1 1 1 1 1 1 1 1 1 1 # 6 4 1 o + # 1 & = & + ,   m 4.",
"{.D m N N j N d m B m m M m d N m M M m m M m m m N d m M M m M m M N N M n &.4.",
"2.5.u.1.4.1.r.4.4.4.2.4.:.4.4.4.4.4.4.4.4.4.4.4.4.1.4.4.4.4.u.;.4.1.1.4.4.:.5.S "
};
